<svg width="74" height="74" viewBox="0 0 74 74" fill="none" xmlns="http://www.w3.org/2000/svg">
<path fill-rule="evenodd" clip-rule="evenodd" d="M21.5834 17.3807C21.5834 16.2804 21.5834 15.7302 21.2172 15.4301C20.851 15.1301 20.3233 15.2359 19.2678 15.4474C12.2427 16.8555 7.70837 19.0801 7.70837 21.5833C7.70837 24.0866 12.2427 26.3112 19.2678 27.7193C20.3233 27.9308 20.851 28.0366 21.2172 27.7366C21.5834 27.4365 21.5834 26.8863 21.5834 25.786V17.3807ZM52.4167 25.786C52.4167 26.8863 52.4167 27.4365 52.7829 27.7366C53.1491 28.0366 53.6768 27.9308 54.7323 27.7193C61.7574 26.3112 66.2917 24.0866 66.2917 21.5833C66.2917 19.0801 61.7574 16.8555 54.7323 15.4474C53.6768 15.2359 53.1491 15.1301 52.7829 15.4301C52.4167 15.7302 52.4167 16.2803 52.4167 17.3807V25.786Z" fill="#73AACC"/>
<path d="M24.444 40.6065L10.7916 55.5L26.7164 59.8431C27.2324 59.9838 27.4904 60.0542 27.7547 60.0896C28.019 60.125 28.2864 60.125 28.8213 60.125H45.3718C45.8104 60.125 46.0298 60.125 46.2473 60.1011C46.4649 60.0772 46.679 60.0297 47.1072 59.9345L60.125 57.0417L53.6998 46.333C52.4092 44.1821 51.7639 43.1066 50.7506 43.0159C49.7372 42.9253 48.9113 43.8692 47.2595 45.757L41.7327 52.0733C40.9716 52.9431 40.5911 53.378 40.1104 53.3563C39.6297 53.3346 39.2898 52.8673 38.6101 51.9326L30.6276 40.9567C29.2966 39.1266 28.6311 38.2115 27.6844 38.1579C26.7377 38.1043 25.9731 38.9384 24.444 40.6065Z" fill="#73AACC"/>
<path d="M10.7916 55.5L24.444 40.6065C25.9731 38.9384 26.7377 38.1043 27.6844 38.1579C28.6311 38.2115 29.2966 39.1266 30.6276 40.9567L38.6101 51.9326C39.2898 52.8673 39.6297 53.3346 40.1104 53.3563C40.5911 53.378 40.9716 52.9431 41.7327 52.0733L47.2595 45.757C48.9113 43.8692 49.7372 42.9253 50.7506 43.0159C51.7639 43.1066 52.4092 44.1821 53.6998 46.333L60.125 57.0417" stroke="#101213"/>
<path d="M20.0416 27.75V15.4167" stroke="#101213" stroke-linecap="round"/>
<path d="M53.9584 27.75V15.4167" stroke="#101213" stroke-linecap="round"/>
<path d="M7.70837 52.4167V21.5833M66.2917 21.5833V52.4167" stroke="#101213" stroke-linecap="round"/>
<path d="M53.9813 15.3025C59.0384 16.2494 62.822 17.5945 64.7862 19.1439C66.7504 20.6932 66.7937 22.3667 64.9099 23.923C63.026 25.4792 59.3124 26.8378 54.3047 27.8027C49.297 28.7676 43.254 29.289 37.0475 29.2917C30.8409 29.2943 24.7916 28.7781 19.772 27.8174C14.7525 26.8568 11.0222 25.5014 9.11918 23.9468C7.2162 22.3921 7.2389 20.7186 9.18402 19.1676C11.1291 17.6165 14.8961 16.2682 19.9416 15.317" stroke="#101213" stroke-linecap="round"/>
<path d="M66.2917 52.4167C66.2917 54.4611 63.2056 56.4217 57.7124 57.8673C52.2191 59.3129 44.7687 60.125 37 60.125C29.2314 60.125 21.781 59.3129 16.2877 57.8673C10.7945 56.4217 7.70838 54.4611 7.70837 52.4167" stroke="#101213"/>
</svg>
