<svg width="74" height="74" viewBox="0 0 74 74" fill="none" xmlns="http://www.w3.org/2000/svg">
<path fill-rule="evenodd" clip-rule="evenodd" d="M7.33832 7.33826C6.16675 8.50983 6.16675 10.3955 6.16675 14.1667V59.8333C6.16675 63.6046 6.16675 65.4902 7.33832 66.6618C8.50989 67.8333 10.3955 67.8333 14.1668 67.8333L18.5001 67.8334C18.5001 59.319 26.7828 52.4167 37.0001 52.4167C47.2174 52.4167 55.5001 59.319 55.5001 67.8334L59.8334 67.8333C63.6046 67.8333 65.4903 67.8333 66.6618 66.6618C67.8334 65.4902 67.8334 63.6046 67.8334 59.8333V14.1667C67.8334 10.3955 67.8334 8.50983 66.6618 7.33826C65.4903 6.16669 63.6046 6.16669 59.8334 6.16669H14.1667C10.3955 6.16669 8.50989 6.16669 7.33832 7.33826ZM37.0001 40.0834C42.1087 40.0834 46.2501 35.942 46.2501 30.8334C46.2501 25.7247 42.1087 21.5834 37.0001 21.5834C31.8914 21.5834 27.7501 25.7247 27.7501 30.8334C27.7501 35.942 31.8914 40.0834 37.0001 40.0834Z" fill="#73AACC"/>
<path d="M55.3172 65.6715C54.6967 62.0202 52.526 58.6752 49.1992 56.2434C45.8724 53.8117 41.6097 52.4543 37.1847 52.4175C32.7596 52.3806 28.4653 53.6669 25.0808 56.0428C21.6964 58.4188 19.4461 61.727 18.7382 65.3672" stroke="#101213" stroke-width="1.2"/>
<circle cx="37" cy="30.8333" r="9.25" stroke="#101213" stroke-width="1.2" stroke-linecap="round"/>
<rect x="6.76675" y="6.76669" width="60.4667" height="60.4667" rx="3.4" stroke="#101213" stroke-width="1.2"/>
</svg>
