<svg width="1280" height="720" viewBox="0 0 1280 720" fill="none" xmlns="http://www.w3.org/2000/svg">
<g clip-path="url(#clip0_21_285)">
<path d="M0 486.667L30.4 494.267C60.9333 501.733 121.733 516.933 182.667 507.733C243.6 498.667 304.4 465.333 365.333 451.6C426.267 437.733 487.067 443.6 548.267 454.933C609.333 466.267 670.667 483.067 731.733 484.933C792.933 486.667 853.733 473.333 914.667 475.067C975.6 476.933 1036.4 493.733 1097.33 499.733C1158.27 505.733 1219.07 500.933 1249.6 498.4L1280 496V721.333H1249.6C1219.07 721.333 1158.27 721.333 1097.33 721.333C1036.4 721.333 975.6 721.333 914.667 721.333C853.733 721.333 792.933 721.333 731.733 721.333C670.667 721.333 609.333 721.333 548.267 721.333C487.067 721.333 426.267 721.333 365.333 721.333C304.4 721.333 243.6 721.333 182.667 721.333C121.733 721.333 60.9333 721.333 30.4 721.333H0V486.667Z" fill="#73AACC"/>
<path d="M0 492L30.4 501.6C60.9333 511.067 121.733 530.267 182.667 531.333C243.6 532.4 304.4 515.6 365.333 512C426.267 508.4 487.067 518.267 548.267 524.267C609.333 530.267 670.667 532.4 731.733 539.067C792.933 545.733 853.733 556.933 914.667 558.933C975.6 560.933 1036.4 553.733 1097.33 554C1158.27 554.267 1219.07 561.733 1249.6 565.6L1280 569.333V721.333H1249.6C1219.07 721.333 1158.27 721.333 1097.33 721.333C1036.4 721.333 975.6 721.333 914.667 721.333C853.733 721.333 792.933 721.333 731.733 721.333C670.667 721.333 609.333 721.333 548.267 721.333C487.067 721.333 426.267 721.333 365.333 721.333C304.4 721.333 243.6 721.333 182.667 721.333C121.733 721.333 60.9333 721.333 30.4 721.333H0V492Z" fill="#88B6D3"/>
<path d="M0 544L30.4 550.667C60.9333 557.333 121.733 570.667 182.667 577.6C243.6 584.4 304.4 584.933 365.333 589.067C426.267 593.333 487.067 601.333 548.267 601.6C609.333 601.733 670.667 594.267 731.733 586.933C792.933 579.6 853.733 572.4 914.667 562.667C975.6 552.933 1036.4 540.4 1097.33 536.267C1158.27 532 1219.07 536 1249.6 538L1280 540V721.333H1249.6C1219.07 721.333 1158.27 721.333 1097.33 721.333C1036.4 721.333 975.6 721.333 914.667 721.333C853.733 721.333 792.933 721.333 731.733 721.333C670.667 721.333 609.333 721.333 548.267 721.333C487.067 721.333 426.267 721.333 365.333 721.333C304.4 721.333 243.6 721.333 182.667 721.333C121.733 721.333 60.9333 721.333 30.4 721.333H0V544Z" fill="#9CC2DA"/>
<path d="M0 644L30.4 642.933C60.9333 641.733 121.733 639.6 182.667 632.933C243.6 626.267 304.4 615.067 365.333 612.933C426.267 610.667 487.067 617.333 548.267 620.267C609.333 623.067 670.667 622.267 731.733 617.067C792.933 612 853.733 602.667 914.667 607.333C975.6 612 1036.4 630.667 1097.33 628.4C1158.27 626.267 1219.07 603.067 1249.6 591.6L1280 580V721.333H1249.6C1219.07 721.333 1158.27 721.333 1097.33 721.333C1036.4 721.333 975.6 721.333 914.667 721.333C853.733 721.333 792.933 721.333 731.733 721.333C670.667 721.333 609.333 721.333 548.267 721.333C487.067 721.333 426.267 721.333 365.333 721.333C304.4 721.333 243.6 721.333 182.667 721.333C121.733 721.333 60.9333 721.333 30.4 721.333H0V644Z" fill="#B0CEE1"/>
<path d="M0 645.333L30.4 651.333C60.9333 657.333 121.733 669.333 182.667 671.733C243.6 674.267 304.4 667.067 365.333 664C426.267 660.933 487.067 661.733 548.267 666.267C609.333 670.667 670.667 678.667 731.733 681.067C792.933 683.6 853.733 680.4 914.667 674C975.6 667.6 1036.4 657.733 1097.33 652.933C1158.27 648 1219.07 648 1249.6 648H1280V721.333H1249.6C1219.07 721.333 1158.27 721.333 1097.33 721.333C1036.4 721.333 975.6 721.333 914.667 721.333C853.733 721.333 792.933 721.333 731.733 721.333C670.667 721.333 609.333 721.333 548.267 721.333C487.067 721.333 426.267 721.333 365.333 721.333C304.4 721.333 243.6 721.333 182.667 721.333C121.733 721.333 60.9333 721.333 30.4 721.333H0V645.333Z" fill="#C4DAE8"/>
</g>
<defs>
<clipPath id="clip0_21_285">
<rect width="1280" height="720" fill="white"/>
</clipPath>
</defs>
</svg>
